# Blender 3.3.1
# www.blender.org
mtllib tunnel.mtl
o Cylinder
v 0.000000 7.000000 -7.000000
v 0.000000 7.000000 7.000000
v 1.365632 6.865497 -7.000000
v 1.365632 6.865496 7.000000
v 2.678784 6.467157 -7.000000
v 2.678784 6.467156 7.000000
v 3.888992 5.820288 -7.000000
v 3.888992 5.820287 7.000000
v 4.949748 4.949748 -7.000000
v 4.949748 4.949747 7.000000
v 5.820287 3.888992 -7.000000
v 5.820287 3.888992 7.000000
v 6.467156 2.678784 -7.000000
v 6.467156 2.678784 7.000000
v 6.865497 1.365633 -7.000000
v 6.865497 1.365632 7.000000
v 7.000000 0.000000 -7.000000
v 7.000000 -0.000000 7.000000
v 6.865497 -1.365632 -7.000000
v 6.865497 -1.365633 7.000000
v 6.467156 -2.678784 -7.000000
v 6.467156 -2.678784 7.000000
v 5.820287 -3.888992 -7.000000
v 5.820287 -3.888992 7.000000
v 4.949748 -4.949747 -7.000000
v 4.949748 -4.949748 7.000000
v 3.888992 -5.820287 -7.000000
v 3.888992 -5.820288 7.000000
v 2.678784 -6.467156 -7.000000
v 2.678784 -6.467157 7.000000
v 1.365632 -6.865496 -7.000000
v 1.365632 -6.865497 7.000000
v 0.000000 -7.000000 -7.000000
v 0.000000 -7.000000 7.000000
v -1.365632 -6.865496 -7.000000
v -1.365632 -6.865497 7.000000
v -2.678784 -6.467156 -7.000000
v -2.678784 -6.467157 7.000000
v -3.888992 -5.820287 -7.000000
v -3.888992 -5.820288 7.000000
v -4.949748 -4.949747 -7.000000
v -4.949748 -4.949748 7.000000
v -5.820287 -3.888992 -7.000000
v -5.820287 -3.888992 7.000000
v -6.467156 -2.678784 -7.000000
v -6.467156 -2.678784 7.000000
v -6.865497 -1.365632 -7.000000
v -6.865497 -1.365633 7.000000
v -7.000000 0.000000 -7.000000
v -7.000000 -0.000000 7.000000
v -6.865497 1.365633 -7.000000
v -6.865497 1.365632 7.000000
v -6.467156 2.678784 -7.000000
v -6.467156 2.678784 7.000000
v -5.820287 3.888992 -7.000000
v -5.820287 3.888992 7.000000
v -4.949748 4.949748 -7.000000
v -4.949748 4.949747 7.000000
v -3.888992 5.820288 -7.000000
v -3.888992 5.820287 7.000000
v -2.678784 6.467157 -7.000000
v -2.678784 6.467156 7.000000
v -1.365632 6.865497 -7.000000
v -1.365632 6.865496 7.000000
v -0.000000 6.686821 -6.686820
v -0.000000 6.686820 6.686821
v 1.304534 6.558335 -6.686820
v 1.304534 6.558334 6.686821
v 2.558935 6.177816 -6.686820
v 2.558935 6.177815 6.686821
v 3.714998 5.559888 -6.686820
v 3.714998 5.559887 6.686821
v 4.728295 4.728296 -6.686820
v 4.728295 4.728295 6.686820
v 5.559887 3.714998 -6.686820
v 5.559887 3.714998 6.686820
v 6.177816 2.558936 -6.686820
v 6.177816 2.558935 6.686820
v 6.558334 1.304534 -6.686820
v 6.558334 1.304534 6.686820
v 6.686820 0.000000 -6.686820
v 6.686820 -0.000000 6.686820
v 6.558334 -1.304534 -6.686820
v 6.558334 -1.304534 6.686820
v 6.177816 -2.558935 -6.686820
v 6.177816 -2.558936 6.686820
v 5.559887 -3.714998 -6.686820
v 5.559887 -3.714998 6.686820
v 4.728295 -4.728295 -6.686820
v 4.728295 -4.728296 6.686820
v 3.714998 -5.559887 -6.686821
v 3.714998 -5.559888 6.686820
v 2.558935 -6.177815 -6.686821
v 2.558935 -6.177816 6.686820
v 1.304534 -6.558334 -6.686821
v 1.304534 -6.558335 6.686820
v -0.000000 -6.686820 -6.686821
v -0.000000 -6.686821 6.686820
v -1.304534 -6.558334 -6.686821
v -1.304534 -6.558335 6.686820
v -2.558935 -6.177815 -6.686821
v -2.558935 -6.177816 6.686820
v -3.714998 -5.559887 -6.686821
v -3.714998 -5.559888 6.686820
v -4.728295 -4.728295 -6.686820
v -4.728295 -4.728296 6.686820
v -5.559887 -3.714998 -6.686820
v -5.559887 -3.714998 6.686820
v -6.177816 -2.558935 -6.686820
v -6.177816 -2.558936 6.686820
v -6.558334 -1.304534 -6.686820
v -6.558334 -1.304534 6.686820
v -6.686820 0.000000 -6.686820
v -6.686820 -0.000000 6.686820
v -6.558334 1.304534 -6.686820
v -6.558334 1.304534 6.686820
v -6.177816 2.558936 -6.686820
v -6.177816 2.558935 6.686820
v -5.559887 3.714998 -6.686820
v -5.559887 3.714998 6.686820
v -4.728295 4.728296 -6.686820
v -4.728295 4.728295 6.686820
v -3.714998 5.559888 -6.686820
v -3.714998 5.559887 6.686821
v -2.558935 6.177816 -6.686820
v -2.558935 6.177815 6.686821
v -1.304534 6.558335 -6.686820
v -1.304534 6.558334 6.686821
vn -0.0980 -0.9952 -0.0000
vn -0.2903 -0.9569 -0.0000
vn -0.4714 -0.8819 -0.0000
vn -0.6344 -0.7730 -0.0000
vn -0.7730 -0.6344 -0.0000
vn -0.8819 -0.4714 -0.0000
vn -0.9569 -0.2903 -0.0000
vn -0.9952 -0.0980 -0.0000
vn -0.9952 0.0980 -0.0000
vn -0.9569 0.2903 -0.0000
vn -0.8819 0.4714 -0.0000
vn -0.7730 0.6344 -0.0000
vn -0.6344 0.7730 -0.0000
vn -0.4714 0.8819 -0.0000
vn -0.2903 0.9569 -0.0000
vn -0.0980 0.9952 -0.0000
vn 0.0980 0.9952 -0.0000
vn 0.2903 0.9569 -0.0000
vn 0.4714 0.8819 -0.0000
vn 0.6344 0.7730 -0.0000
vn 0.7730 0.6344 -0.0000
vn 0.8819 0.4714 -0.0000
vn 0.9569 0.2903 -0.0000
vn 0.9952 0.0980 -0.0000
vn 0.9952 -0.0980 -0.0000
vn 0.9569 -0.2903 -0.0000
vn 0.8819 -0.4714 -0.0000
vn 0.7730 -0.6344 -0.0000
vn 0.6344 -0.7730 -0.0000
vn 0.4714 -0.8819 -0.0000
vn 0.2903 -0.9569 -0.0000
vn 0.0980 -0.9952 -0.0000
vn -0.0695 0.7054 -0.7054
vn 0.2058 -0.6783 0.7054
vn 0.6251 0.3341 -0.7054
vn -0.7054 -0.0695 0.7054
vn 0.2058 -0.6783 -0.7054
vn -0.7054 -0.0695 -0.7054
vn 0.6783 0.2058 0.7054
vn 0.0695 -0.7054 0.7054
vn 0.6783 0.2058 -0.7054
vn -0.7054 0.0695 0.7054
vn 0.0695 -0.7054 -0.7054
vn -0.7054 0.0695 -0.7054
vn 0.7054 0.0695 0.7054
vn -0.0695 -0.7054 0.7054
vn 0.7054 0.0695 -0.7054
vn -0.6783 0.2058 0.7054
vn -0.0695 -0.7054 -0.7054
vn -0.6783 0.2058 -0.7054
vn 0.7054 -0.0695 0.7054
vn -0.2058 -0.6783 0.7054
vn 0.7054 -0.0695 -0.7054
vn 0.0695 0.7054 0.7054
vn -0.6251 0.3341 0.7054
vn -0.2058 -0.6783 -0.7054
vn 0.0695 0.7054 -0.7054
vn -0.6251 0.3341 -0.7054
vn 0.6783 -0.2058 0.7054
vn -0.3341 -0.6251 0.7054
vn 0.6783 -0.2058 -0.7054
vn -0.5479 0.4497 0.7054
vn -0.3341 -0.6251 -0.7054
vn 0.2058 0.6783 0.7054
vn -0.5479 0.4497 -0.7054
vn 0.6251 -0.3341 0.7054
vn 0.2058 0.6783 -0.7054
vn -0.4497 -0.5479 0.7054
vn 0.6251 -0.3341 -0.7054
vn -0.4497 0.5479 0.7054
vn -0.4497 -0.5479 -0.7054
vn 0.3341 0.6251 0.7054
vn -0.4497 0.5479 -0.7054
vn 0.5479 -0.4497 0.7054
vn 0.3341 0.6251 -0.7054
vn -0.5479 -0.4497 0.7054
vn 0.5479 -0.4497 -0.7054
vn -0.3341 0.6251 0.7054
vn -0.5479 -0.4497 -0.7054
vn 0.4497 0.5479 0.7054
vn -0.3341 0.6251 -0.7054
vn 0.4497 -0.5479 0.7054
vn 0.4497 0.5479 -0.7054
vn -0.6251 -0.3341 0.7054
vn 0.4497 -0.5479 -0.7054
vn -0.2058 0.6783 0.7054
vn -0.6251 -0.3341 -0.7054
vn 0.5479 0.4497 0.7054
vn -0.2058 0.6783 -0.7054
vn 0.3341 -0.6251 0.7054
vn 0.5479 0.4497 -0.7054
vn -0.6783 -0.2058 0.7054
vn 0.3341 -0.6251 -0.7054
vn -0.0695 0.7054 0.7054
vn -0.6783 -0.2058 -0.7054
vn 0.6251 0.3341 0.7054
vt 1.000000 0.500000
vt 0.000000 0.500000
vt 0.000000 1.000000
vt 1.000000 1.000000
vt 0.968750 0.500000
vt 0.968750 1.000000
vt 0.937500 0.500000
vt 0.937500 1.000000
vt 0.906250 0.500000
vt 0.906250 1.000000
vt 0.875000 0.500000
vt 0.875000 1.000000
vt 0.843750 0.500000
vt 0.843750 1.000000
vt 0.812500 0.500000
vt 0.812500 1.000000
vt 0.781250 0.500000
vt 0.781250 1.000000
vt 0.750000 0.500000
vt 0.750000 1.000000
vt 0.718750 0.500000
vt 0.718750 1.000000
vt 0.687500 0.500000
vt 0.687500 1.000000
vt 0.656250 0.500000
vt 0.656250 1.000000
vt 0.625000 0.500000
vt 0.625000 1.000000
vt 0.593750 0.500000
vt 0.593750 1.000000
vt 0.562500 0.500000
vt 0.562500 1.000000
vt 0.531250 0.500000
vt 0.531250 1.000000
vt 0.500000 0.500000
vt 0.500000 1.000000
vt 0.468750 0.500000
vt 0.468750 1.000000
vt 0.437500 0.500000
vt 0.437500 1.000000
vt 0.406250 0.500000
vt 0.406250 1.000000
vt 0.375000 0.500000
vt 0.375000 1.000000
vt 0.343750 0.500000
vt 0.343750 1.000000
vt 0.312500 0.500000
vt 0.312500 1.000000
vt 0.281250 0.500000
vt 0.281250 1.000000
vt 0.250000 0.500000
vt 0.250000 1.000000
vt 0.218750 0.500000
vt 0.218750 1.000000
vt 0.187500 0.500000
vt 0.187500 1.000000
vt 0.156250 0.500000
vt 0.156250 1.000000
vt 0.125000 0.500000
vt 0.125000 1.000000
vt 0.093750 0.500000
vt 0.093750 1.000000
vt 0.062500 0.500000
vt 0.062500 1.000000
vt 0.031250 0.500000
vt 0.031250 1.000000
vt 1.000000 0.500000
vt 0.000000 0.500000
vt 0.000000 1.000000
vt 1.000000 1.000000
vt 0.968750 0.500000
vt 0.968750 1.000000
vt 0.937500 0.500000
vt 0.937500 1.000000
vt 0.906250 0.500000
vt 0.906250 1.000000
vt 0.875000 0.500000
vt 0.875000 1.000000
vt 0.843750 0.500000
vt 0.843750 1.000000
vt 0.812500 0.500000
vt 0.812500 1.000000
vt 0.781250 0.500000
vt 0.781250 1.000000
vt 0.750000 0.500000
vt 0.750000 1.000000
vt 0.718750 0.500000
vt 0.718750 1.000000
vt 0.687500 0.500000
vt 0.687500 1.000000
vt 0.656250 0.500000
vt 0.656250 1.000000
vt 0.625000 0.500000
vt 0.625000 1.000000
vt 0.593750 0.500000
vt 0.593750 1.000000
vt 0.562500 0.500000
vt 0.562500 1.000000
vt 0.531250 0.500000
vt 0.531250 1.000000
vt 0.500000 0.500000
vt 0.500000 1.000000
vt 0.468750 0.500000
vt 0.468750 1.000000
vt 0.437500 0.500000
vt 0.437500 1.000000
vt 0.406250 0.500000
vt 0.406250 1.000000
vt 0.375000 0.500000
vt 0.375000 1.000000
vt 0.343750 0.500000
vt 0.343750 1.000000
vt 0.312500 0.500000
vt 0.312500 1.000000
vt 0.281250 0.500000
vt 0.281250 1.000000
vt 0.250000 0.500000
vt 0.250000 1.000000
vt 0.218750 0.500000
vt 0.218750 1.000000
vt 0.187500 0.500000
vt 0.187500 1.000000
vt 0.156250 0.500000
vt 0.156250 1.000000
vt 0.125000 0.500000
vt 0.125000 1.000000
vt 0.093750 0.500000
vt 0.093750 1.000000
vt 0.062500 0.500000
vt 0.062500 1.000000
vt 0.031250 0.500000
vt 0.031250 1.000000
s 0
f 1/1/1 3/5/1 4/6/1 2/4/1
f 3/5/2 5/7/2 6/8/2 4/6/2
f 5/7/3 7/9/3 8/10/3 6/8/3
f 7/9/4 9/11/4 10/12/4 8/10/4
f 9/11/5 11/13/5 12/14/5 10/12/5
f 11/13/6 13/15/6 14/16/6 12/14/6
f 13/15/7 15/17/7 16/18/7 14/16/7
f 15/17/8 17/19/8 18/20/8 16/18/8
f 17/19/9 19/21/9 20/22/9 18/20/9
f 19/21/10 21/23/10 22/24/10 20/22/10
f 21/23/11 23/25/11 24/26/11 22/24/11
f 23/25/12 25/27/12 26/28/12 24/26/12
f 25/27/13 27/29/13 28/30/13 26/28/13
f 27/29/14 29/31/14 30/32/14 28/30/14
f 29/31/15 31/33/15 32/34/15 30/32/15
f 31/33/16 33/35/16 34/36/16 32/34/16
f 33/35/17 35/37/17 36/38/17 34/36/17
f 35/37/18 37/39/18 38/40/18 36/38/18
f 37/39/19 39/41/19 40/42/19 38/40/19
f 39/41/20 41/43/20 42/44/20 40/42/20
f 41/43/21 43/45/21 44/46/21 42/44/21
f 43/45/22 45/47/22 46/48/22 44/46/22
f 45/47/23 47/49/23 48/50/23 46/48/23
f 47/49/24 49/51/24 50/52/24 48/50/24
f 49/51/25 51/53/25 52/54/25 50/52/25
f 51/53/26 53/55/26 54/56/26 52/54/26
f 53/55/27 55/57/27 56/58/27 54/56/27
f 55/57/28 57/59/28 58/60/28 56/58/28
f 57/59/29 59/61/29 60/62/29 58/60/29
f 59/61/30 61/63/30 62/64/30 60/62/30
f 67/71/18 68/72/18 70/74/18 69/73/18
f 61/63/31 63/65/31 64/66/31 62/64/31
f 63/65/32 1/2/32 2/3/32 64/66/32
f 65/67/17 66/70/17 68/72/17 67/71/17
f 69/73/19 70/74/19 72/76/19 71/75/19
f 71/75/20 72/76/20 74/78/20 73/77/20
f 73/77/21 74/78/21 76/80/21 75/79/21
f 75/79/22 76/80/22 78/82/22 77/81/22
f 77/81/23 78/82/23 80/84/23 79/83/23
f 79/83/24 80/84/24 82/86/24 81/85/24
f 81/85/25 82/86/25 84/88/25 83/87/25
f 83/87/26 84/88/26 86/90/26 85/89/26
f 85/89/27 86/90/27 88/92/27 87/91/27
f 87/91/28 88/92/28 90/94/28 89/93/28
f 89/93/29 90/94/29 92/96/29 91/95/29
f 91/95/30 92/96/30 94/98/30 93/97/30
f 93/97/31 94/98/31 96/100/31 95/99/31
f 95/99/32 96/100/32 98/102/32 97/101/32
f 97/101/1 98/102/1 100/104/1 99/103/1
f 99/103/2 100/104/2 102/106/2 101/105/2
f 101/105/3 102/106/3 104/108/3 103/107/3
f 103/107/4 104/108/4 106/110/4 105/109/4
f 105/109/5 106/110/5 108/112/5 107/111/5
f 107/111/6 108/112/6 110/114/6 109/113/6
f 109/113/7 110/114/7 112/116/7 111/115/7
f 111/115/8 112/116/8 114/118/8 113/117/8
f 113/117/9 114/118/9 116/120/9 115/119/9
f 115/119/10 116/120/10 118/122/10 117/121/10
f 117/121/11 118/122/11 120/124/11 119/123/11
f 119/123/12 120/124/12 122/126/12 121/125/12
f 121/125/13 122/126/13 124/128/13 123/127/13
f 123/127/14 124/128/14 126/130/14 125/129/14
f 125/129/15 126/130/15 128/132/15 127/131/15
f 127/131/16 128/132/16 66/69/16 65/68/16
f 64/66/33 2/3/33 66/69/33 128/132/33
f 31/33/34 29/31/34 93/97/34 95/99/34
f 12/14/35 14/16/35 78/82/35 76/80/35
f 49/51/36 47/49/36 111/115/36 113/117/36
f 30/32/37 32/34/37 96/100/37 94/98/37
f 48/50/38 50/52/38 114/118/38 112/116/38
f 15/17/39 13/15/39 77/81/39 79/83/39
f 33/35/40 31/33/40 95/99/40 97/101/40
f 14/16/41 16/18/41 80/84/41 78/82/41
f 51/53/42 49/51/42 113/117/42 115/119/42
f 32/34/43 34/36/43 98/102/43 96/100/43
f 50/52/44 52/54/44 116/120/44 114/118/44
f 17/19/45 15/17/45 79/83/45 81/85/45
f 35/37/46 33/35/46 97/101/46 99/103/46
f 16/18/47 18/20/47 82/86/47 80/84/47
f 53/55/48 51/53/48 115/119/48 117/121/48
f 34/36/49 36/38/49 100/104/49 98/102/49
f 52/54/50 54/56/50 118/122/50 116/120/50
f 19/21/51 17/19/51 81/85/51 83/87/51
f 37/39/52 35/37/52 99/103/52 101/105/52
f 18/20/53 20/22/53 84/88/53 82/86/53
f 3/5/54 1/1/54 65/67/54 67/71/54
f 55/57/55 53/55/55 117/121/55 119/123/55
f 36/38/56 38/40/56 102/106/56 100/104/56
f 2/4/57 4/6/57 68/72/57 66/70/57
f 54/56/58 56/58/58 120/124/58 118/122/58
f 21/23/59 19/21/59 83/87/59 85/89/59
f 39/41/60 37/39/60 101/105/60 103/107/60
f 20/22/61 22/24/61 86/90/61 84/88/61
f 57/59/62 55/57/62 119/123/62 121/125/62
f 38/40/63 40/42/63 104/108/63 102/106/63
f 5/7/64 3/5/64 67/71/64 69/73/64
f 56/58/65 58/60/65 122/126/65 120/124/65
f 23/25/66 21/23/66 85/89/66 87/91/66
f 4/6/67 6/8/67 70/74/67 68/72/67
f 41/43/68 39/41/68 103/107/68 105/109/68
f 22/24/69 24/26/69 88/92/69 86/90/69
f 59/61/70 57/59/70 121/125/70 123/127/70
f 40/42/71 42/44/71 106/110/71 104/108/71
f 7/9/72 5/7/72 69/73/72 71/75/72
f 58/60/73 60/62/73 124/128/73 122/126/73
f 25/27/74 23/25/74 87/91/74 89/93/74
f 6/8/75 8/10/75 72/76/75 70/74/75
f 43/45/76 41/43/76 105/109/76 107/111/76
f 24/26/77 26/28/77 90/94/77 88/92/77
f 61/63/78 59/61/78 123/127/78 125/129/78
f 42/44/79 44/46/79 108/112/79 106/110/79
f 9/11/80 7/9/80 71/75/80 73/77/80
f 60/62/81 62/64/81 126/130/81 124/128/81
f 27/29/82 25/27/82 89/93/82 91/95/82
f 8/10/83 10/12/83 74/78/83 72/76/83
f 45/47/84 43/45/84 107/111/84 109/113/84
f 26/28/85 28/30/85 92/96/85 90/94/85
f 63/65/86 61/63/86 125/129/86 127/131/86
f 44/46/87 46/48/87 110/114/87 108/112/87
f 11/13/88 9/11/88 73/77/88 75/79/88
f 62/64/89 64/66/89 128/132/89 126/130/89
f 29/31/90 27/29/90 91/95/90 93/97/90
f 10/12/91 12/14/91 76/80/91 74/78/91
f 47/49/92 45/47/92 109/113/92 111/115/92
f 28/30/93 30/32/93 94/98/93 92/96/93
f 1/2/94 63/65/94 127/131/94 65/68/94
f 46/48/95 48/50/95 112/116/95 110/114/95
f 13/15/96 11/13/96 75/79/96 77/81/96
